# xmcd
#
# Track frame offsets: 
#        150
#        12853
#        26437
#        39495
#        51310
#        64440
#        77339
#        89514
#        100620
#        113880
#        125442
#        138580
#        153133
#        168230
#        181842
#        195426
#        208355
#        221634
#        235150
#        248529
#        260690
#
# Disc length: 3660 seconds
#
# Revision: 5
# Processed by: cddbd v1.5.2PL0 Copyright (c) Steve Scherf et al.
# Submitted via: ExactAudioCopyFreeDBPlugin 1.0
#
DISCID=1b0e4a15
DTITLE=Big Joe Turner - Nobody In Mind
DYEAR=1900
DGENRE=Blues
TTITLE0=Sun Risin' Blues
TTITLE1=S. K. Blues Part 1
TTITLE2=Nobody In Mind
TTITLE3=Blues On Central Avenue
TTITLE4=Ice Man
TTITLE5=Cry Baby Blues
TTITLE6=Rebecca
TTITLE7=Blues In The Night
TTITLE8=It's The Same Old Story
TTITLE9=Chewred Up Grass
TTITLE10=Somebody's Got To Go
TTITLE11=Rocks In My Bed
TTITLE12=Little Bitty Gal's Blues
TTITLE13=I Got A Gal (For Every Day In The Week)
TTITLE14=Johnson and Turner Blues
TTITLE15=Howlin' Winds
TTITLE16=S. K. Blues - Part 2
TTITLE17=Goin' To Chicago Blues
TTITLE18=Watch That Jive
TTITLE19=I Got My Discharge Papers
TTITLE20=Doggin' The Blues (Low Dog Blues)
EXTD=Digitally Remastered-History -(20.1946-HI)\r\n\r\n
EXTT0=
EXTT1=
EXTT2=
EXTT3=
EXTT4=
EXTT5=
EXTT6=
EXTT7=
EXTT8=
EXTT9=
EXTT10=
EXTT11=
EXTT12=
EXTT13=
EXTT14=
EXTT15=
EXTT16=
EXTT17=
EXTT18=
EXTT19=
EXTT20=
PLAYORDER=
